<svg width="137" height="52" viewBox="0 0 137 52" fill="none" xmlns="http://www.w3.org/2000/svg">
<path d="M126.184 23.3782C131.053 23.3782 135 19.9364 135 15.6909C135 11.4454 131.053 8.00364 126.184 8.00364C124.369 8.00364 122.682 8.48168 121.28 9.30122M121.28 9.30122C120.075 6.30695 116.805 4.16 112.959 4.16C109.113 4.16 105.843 6.30695 104.638 9.30122M121.28 9.30122C121.601 10.0981 121.775 10.9549 121.775 11.8473C121.775 12.5109 121.679 13.1549 121.498 13.7691M99.7347 23.3782C94.8655 23.3782 90.9183 19.9364 90.9183 15.6909C90.9183 11.4454 94.8655 8.00364 99.7347 8.00364C101.549 8.00364 103.236 8.48168 104.638 9.30122M104.638 9.30122C105.757 9.95544 106.695 10.8273 107.372 11.8473" stroke="url(#paint0_linear_2090_222)" stroke-width="3.07034" stroke-linecap="round" stroke-linejoin="round"/>
<path d="M118.26 32.2259C118.607 31.1822 118.818 29.8112 118.818 28.3097C118.818 26.8082 118.607 25.4372 118.26 24.3936" fill="#010100"/>
<path d="M118.26 32.2259C118.607 31.1822 118.818 29.8112 118.818 28.3097C118.818 26.8082 118.607 25.4372 118.26 24.3936" stroke="url(#paint1_linear_2090_222)" stroke-width="3.07034" stroke-linecap="round"/>
<path d="M105.426 32.2259C105.774 31.1822 105.984 29.8112 105.984 28.3097C105.984 26.8082 105.774 25.4372 105.426 24.3936" fill="#010100"/>
<path d="M105.426 32.2259C105.774 31.1822 105.984 29.8112 105.984 28.3097C105.984 26.8082 105.774 25.4372 105.426 24.3936" stroke="url(#paint2_linear_2090_222)" stroke-width="3.07034" stroke-linecap="round"/>
<path d="M111.564 32.2259C111.911 31.1822 112.122 29.8112 112.122 28.3097C112.122 26.8082 111.911 25.4372 111.564 24.3936" fill="#010100"/>
<path d="M111.564 32.2259C111.911 31.1822 112.122 29.8112 112.122 28.3097C112.122 26.8082 111.911 25.4372 111.564 24.3936" stroke="url(#paint3_linear_2090_222)" stroke-width="3.07034" stroke-linecap="round"/>
<path d="M97.5306 38.7528C101.642 37.5567 107.044 36.831 112.959 36.831C118.875 36.831 124.276 37.5567 128.388 38.7528" stroke="url(#paint4_linear_2090_222)" stroke-width="3.07034" stroke-linecap="round"/>
<path d="M126.184 21.4564V36.8309M99.7347 21.4564V36.8309" stroke="url(#paint5_linear_2090_222)" stroke-width="3.07034" stroke-linecap="round"/>
<path d="M42.4589 13.252L42.7709 12.268C43.5549 12.268 44.2029 12.24 44.7149 12.184C45.2269 12.12 45.6229 12.024 45.9029 11.896C46.1909 11.76 46.3909 11.588 46.5029 11.38C46.6149 11.164 46.6629 10.904 46.6469 10.6L46.4189 4.432H47.3909L47.6309 10.492C47.6469 10.9 47.7109 11.22 47.8229 11.452C47.9429 11.684 48.1029 11.848 48.3029 11.944C48.5029 12.032 48.7229 12.076 48.9629 12.076C49.1309 12.076 49.2509 12.124 49.3229 12.22C49.4029 12.308 49.4429 12.416 49.4429 12.544C49.4429 12.672 49.3869 12.792 49.2749 12.904C49.1629 13.008 49.0189 13.06 48.8429 13.06C48.4669 13.06 48.1629 13.004 47.9309 12.892C47.6989 12.772 47.5189 12.624 47.3909 12.448C47.2709 12.272 47.1909 12.088 47.1509 11.896L47.4029 11.908C47.2429 12.156 47.0269 12.368 46.7549 12.544C46.4829 12.712 46.1469 12.848 45.7469 12.952C45.3469 13.056 44.8749 13.132 44.3309 13.18C43.7949 13.228 43.1709 13.252 42.4589 13.252ZM42.1469 10.552L41.9189 9.796C42.2549 9.708 42.5269 9.632 42.7349 9.568C42.9429 9.504 43.0909 9.444 43.1789 9.388C43.2749 9.324 43.3229 9.26 43.3229 9.196C43.3229 9.108 43.2749 9.028 43.1789 8.956C43.0909 8.876 42.9869 8.796 42.8669 8.716C42.7549 8.628 42.6509 8.528 42.5549 8.416C42.4669 8.304 42.4229 8.168 42.4229 8.008C42.4229 7.864 42.4629 7.716 42.5429 7.564C42.6309 7.404 42.7829 7.24 42.9989 7.072C43.2149 6.896 43.5189 6.712 43.9109 6.52L44.2829 7.204C43.9149 7.38 43.6429 7.532 43.4669 7.66C43.2989 7.78 43.2149 7.888 43.2149 7.984C43.2149 8.056 43.2589 8.132 43.3469 8.212C43.4429 8.292 43.5469 8.38 43.6589 8.476C43.7789 8.572 43.8829 8.684 43.9709 8.812C44.0669 8.932 44.1149 9.076 44.1149 9.244C44.1149 9.356 44.0909 9.468 44.0429 9.58C43.9949 9.684 43.8989 9.792 43.7549 9.904C43.6189 10.008 43.4229 10.116 43.1669 10.228C42.9109 10.332 42.5709 10.44 42.1469 10.552ZM42.4589 13.252C41.7469 13.252 41.1189 13.204 40.5749 13.108C40.0389 13.02 39.5909 12.88 39.2309 12.688C38.8709 12.496 38.5989 12.248 38.4149 11.944C38.2309 11.632 38.1389 11.256 38.1389 10.816C38.1389 10.616 38.1549 10.412 38.1869 10.204C38.2189 9.988 38.2589 9.772 38.3069 9.556C38.3629 9.34 38.4189 9.132 38.4749 8.932L39.3749 9.16C39.3429 9.28 39.3069 9.424 39.2669 9.592C39.2269 9.752 39.1909 9.916 39.1589 10.084C39.1349 10.252 39.1229 10.404 39.1229 10.54C39.1229 10.956 39.2269 11.292 39.4349 11.548C39.6509 11.796 40.0229 11.98 40.5509 12.1C41.0789 12.212 41.8189 12.268 42.7709 12.268L43.0109 12.868L42.4589 13.252ZM48.8414 13.06L48.9614 12.076C49.3614 12.076 49.6734 12.048 49.8974 11.992C50.1214 11.928 50.2894 11.812 50.4014 11.644C50.5214 11.468 50.6174 11.216 50.6894 10.888C50.7614 10.56 50.8494 10.132 50.9534 9.604L51.8894 9.784C51.8574 9.928 51.8214 10.088 51.7814 10.264C51.7414 10.44 51.7054 10.616 51.6734 10.792C51.6494 10.96 51.6374 11.108 51.6374 11.236C51.6374 11.356 51.6454 11.468 51.6614 11.572C51.6774 11.676 51.7374 11.764 51.8414 11.836C51.9454 11.908 52.1214 11.968 52.3694 12.016C52.6174 12.056 52.9734 12.076 53.4374 12.076C53.6054 12.076 53.7254 12.124 53.7974 12.22C53.8774 12.308 53.9174 12.416 53.9174 12.544C53.9174 12.672 53.8614 12.792 53.7494 12.904C53.6374 13.008 53.4934 13.06 53.3174 13.06C52.8294 13.06 52.4414 13.036 52.1534 12.988C51.8654 12.932 51.6454 12.852 51.4934 12.748C51.3494 12.644 51.2454 12.516 51.1814 12.364C51.1254 12.204 51.0814 12.02 51.0494 11.812L51.4094 11.836C51.2814 12.092 51.1414 12.3 50.9894 12.46C50.8454 12.62 50.6774 12.744 50.4854 12.832C50.2934 12.92 50.0614 12.98 49.7894 13.012C49.5254 13.044 49.2094 13.06 48.8414 13.06ZM51.8654 15.328C51.6974 15.328 51.5534 15.268 51.4334 15.148C51.3214 15.036 51.2654 14.9 51.2654 14.74C51.2654 14.58 51.3214 14.44 51.4334 14.32C51.5534 14.2 51.6974 14.14 51.8654 14.14C52.0254 14.14 52.1614 14.2 52.2734 14.32C52.3934 14.44 52.4534 14.58 52.4534 14.74C52.4534 14.9 52.3934 15.036 52.2734 15.148C52.1614 15.268 52.0254 15.328 51.8654 15.328ZM50.2214 15.328C50.0534 15.328 49.9094 15.268 49.7894 15.148C49.6774 15.036 49.6214 14.9 49.6214 14.74C49.6214 14.58 49.6774 14.44 49.7894 14.32C49.9094 14.2 50.0534 14.14 50.2214 14.14C50.3814 14.14 50.5174 14.2 50.6294 14.32C50.7494 14.44 50.8094 14.58 50.8094 14.74C50.8094 14.9 50.7494 15.036 50.6294 15.148C50.5174 15.268 50.3814 15.328 50.2214 15.328ZM53.3179 13.06L53.4379 12.076C53.8299 12.076 54.1419 12.052 54.3739 12.004C54.6059 11.956 54.7739 11.86 54.8779 11.716C54.9819 11.564 55.0339 11.34 55.0339 11.044C55.0339 10.844 55.0019 10.608 54.9379 10.336C54.8739 10.056 54.7899 9.76 54.6859 9.448C54.5819 9.136 54.4699 8.828 54.3499 8.524L55.3219 8.164C55.4259 8.42 55.5219 8.712 55.6099 9.04C55.7059 9.368 55.7859 9.692 55.8499 10.012C55.9139 10.332 55.9459 10.612 55.9459 10.852C55.9459 11.172 55.9099 11.456 55.8379 11.704C55.7739 11.944 55.6739 12.152 55.5379 12.328C55.4019 12.496 55.2259 12.636 55.0099 12.748C54.8019 12.852 54.5579 12.932 54.2779 12.988C53.9979 13.036 53.6779 13.06 53.3179 13.06ZM54.6019 15.292C54.4339 15.292 54.2899 15.232 54.1699 15.112C54.0579 15 54.0019 14.864 54.0019 14.704C54.0019 14.544 54.0579 14.404 54.1699 14.284C54.2899 14.164 54.4339 14.104 54.6019 14.104C54.7619 14.104 54.8979 14.164 55.0099 14.284C55.1299 14.404 55.1899 14.544 55.1899 14.704C55.1899 14.864 55.1299 15 55.0099 15.112C54.8979 15.232 54.7619 15.292 54.6019 15.292ZM67.0216 13.06C66.5416 13.06 66.1456 13.02 65.8336 12.94C65.5296 12.86 65.2896 12.736 65.1136 12.568C64.9456 12.4 64.8256 12.188 64.7536 11.932C64.6896 11.668 64.6496 11.356 64.6336 10.996L64.3936 4.432H65.3776L65.6176 10.612C65.6336 11.004 65.6696 11.308 65.7256 11.524C65.7896 11.732 65.9256 11.876 66.1336 11.956C66.3496 12.036 66.6856 12.076 67.1416 12.076C67.3096 12.076 67.4296 12.124 67.5016 12.22C67.5816 12.308 67.6216 12.416 67.6216 12.544C67.6216 12.672 67.5656 12.792 67.4536 12.904C67.3416 13.008 67.1976 13.06 67.0216 13.06ZM61.5376 13.06C61.3216 13.06 61.1016 13.04 60.8776 13C60.6616 12.968 60.5096 12.944 60.4216 12.928L60.5536 11.98C61.1056 12.052 61.6256 12.064 62.1136 12.016C62.6016 11.968 63.0256 11.832 63.3856 11.608C63.7536 11.376 64.0416 11.028 64.2496 10.564C64.4576 10.1 64.5616 9.496 64.5616 8.752L65.1376 10.192C65.0416 10.696 64.8976 11.12 64.7056 11.464C64.5136 11.8 64.2896 12.076 64.0336 12.292C63.7856 12.5 63.5176 12.66 63.2296 12.772C62.9416 12.884 62.6536 12.96 62.3656 13C62.0776 13.04 61.8016 13.06 61.5376 13.06ZM64.1416 11.416C64.0136 11.168 63.8336 10.88 63.6016 10.552C63.3696 10.216 63.0896 9.852 62.7616 9.46C62.4336 9.068 62.0616 8.66 61.6456 8.236C61.2376 7.812 60.7936 7.384 60.3136 6.952L60.9616 6.268C61.4896 6.772 61.9576 7.244 62.3656 7.684C62.7816 8.116 63.1456 8.524 63.4576 8.908C63.7696 9.284 64.0376 9.628 64.2616 9.94C64.4856 10.252 64.6736 10.536 64.8256 10.792L64.1416 11.416ZM71.6372 13.096C71.3092 13.096 70.9732 13.052 70.6292 12.964C70.2852 12.868 69.9532 12.736 69.6332 12.568C69.3212 12.4 69.0372 12.196 68.7812 11.956C68.5332 11.708 68.3332 11.432 68.1812 11.128C68.0372 10.824 67.9652 10.496 67.9652 10.144C67.9652 9.784 68.0372 9.452 68.1812 9.148C68.3332 8.844 68.5452 8.6 68.8172 8.416C69.0972 8.224 69.4212 8.128 69.7892 8.128C70.1492 8.128 70.4572 8.228 70.7132 8.428C70.9692 8.62 71.1652 8.872 71.3012 9.184C71.4452 9.488 71.5172 9.808 71.5172 10.144C71.5172 10.608 71.3852 11.024 71.1212 11.392C70.8652 11.752 70.5172 12.056 70.0772 12.304C69.6372 12.552 69.1532 12.74 68.6252 12.868C68.0972 12.996 67.5612 13.06 67.0172 13.06L67.1372 12.076C67.5692 12.076 67.9532 12.048 68.2892 11.992C68.6332 11.928 68.9292 11.844 69.1772 11.74C69.5452 11.596 69.8332 11.424 70.0412 11.224C70.2572 11.016 70.4092 10.804 70.4972 10.588C70.5852 10.372 70.6292 10.176 70.6292 10C70.6292 9.832 70.5932 9.672 70.5212 9.52C70.4572 9.36 70.3612 9.232 70.2332 9.136C70.1132 9.032 69.9652 8.98 69.7892 8.98C69.6132 8.98 69.4532 9.032 69.3092 9.136C69.1732 9.232 69.0652 9.36 68.9852 9.52C68.9052 9.68 68.8652 9.848 68.8652 10.024C68.8652 10.36 68.9492 10.66 69.1172 10.924C69.2932 11.18 69.5172 11.4 69.7892 11.584C70.0692 11.768 70.3652 11.908 70.6772 12.004C70.9972 12.1 71.3012 12.148 71.5892 12.148C71.8612 12.148 72.0612 12.104 72.1892 12.016C72.3172 11.92 72.3812 11.764 72.3812 11.548C72.3812 11.508 72.3692 11.436 72.3452 11.332C72.3292 11.22 72.2652 11.068 72.1532 10.876C72.0492 10.684 71.8692 10.448 71.6132 10.168C71.3572 9.88 70.9972 9.54 70.5332 9.148C70.0692 8.748 69.4692 8.284 68.7332 7.756L69.2972 7.012C70.0652 7.572 70.6972 8.068 71.1932 8.5C71.6972 8.924 72.0932 9.296 72.3812 9.616C72.6772 9.928 72.8932 10.204 73.0292 10.444C73.1732 10.676 73.2652 10.884 73.3052 11.068C73.3452 11.244 73.3652 11.412 73.3652 11.572C73.3652 11.836 73.3052 12.084 73.1852 12.316C73.0732 12.548 72.8892 12.736 72.6332 12.88C72.3852 13.024 72.0532 13.096 71.6372 13.096ZM75.0118 13L74.7718 4.432H75.7438L75.9838 13H75.0118Z" fill="#FF8C04"/>
<path d="M5.088 32.0061L5.4 30.3261C5.896 30.3261 6.368 30.3101 6.816 30.2781C7.264 30.2461 7.676 30.2061 8.052 30.1581C8.436 30.1101 8.768 30.0581 9.048 30.0021C9.336 29.9461 9.556 29.8941 9.708 29.8461C9.98 29.7581 10.212 29.6501 10.404 29.5221C10.596 29.3941 10.744 29.2501 10.848 29.0901C10.952 28.9301 11.004 28.7701 11.004 28.6101C11.004 28.4981 10.984 28.3861 10.944 28.2741C10.904 28.1621 10.848 28.0581 10.776 27.9621C10.712 27.8661 10.632 27.7901 10.536 27.7341C10.448 27.6701 10.356 27.6381 10.26 27.6381C10.132 27.6381 10.004 27.6861 9.876 27.7821C9.756 27.8781 9.656 28.0061 9.576 28.1661C9.504 28.3181 9.468 28.4901 9.468 28.6821C9.468 28.8181 9.508 28.9621 9.588 29.1141C9.668 29.2661 9.78 29.4141 9.924 29.5581C10.076 29.6941 10.248 29.8141 10.44 29.9181L8.844 30.5301C8.668 30.3621 8.5 30.1901 8.34 30.0141C8.188 29.8301 8.06 29.6261 7.956 29.4021C7.86 29.1781 7.812 28.9261 7.812 28.6461C7.812 28.2781 7.884 27.9381 8.028 27.6261C8.18 27.3061 8.376 27.0261 8.616 26.7861C8.864 26.5461 9.132 26.3621 9.42 26.2341C9.716 26.0981 10.008 26.0301 10.296 26.0301C10.76 26.0301 11.168 26.1541 11.52 26.4021C11.872 26.6421 12.148 26.9541 12.348 27.3381C12.556 27.7221 12.66 28.1261 12.66 28.5501C12.66 28.9261 12.588 29.2621 12.444 29.5581C12.3 29.8541 12.104 30.1141 11.856 30.3381C11.616 30.5541 11.348 30.7461 11.052 30.9141C10.764 31.0821 10.472 31.2261 10.176 31.3461C9.968 31.4341 9.68 31.5181 9.312 31.5981C8.952 31.6781 8.536 31.7461 8.064 31.8021C7.6 31.8661 7.112 31.9141 6.6 31.9461C6.088 31.9861 5.584 32.0061 5.088 32.0061ZM13.368 31.8141C12.904 31.8141 12.448 31.7901 12 31.7421C11.552 31.6941 11.136 31.6221 10.752 31.5261C10.376 31.4301 10.048 31.3141 9.768 31.1781L10.596 29.8821C10.836 29.9461 11.116 29.9981 11.436 30.0381C11.764 30.0701 12.104 30.0941 12.456 30.1101C12.816 30.1261 13.16 30.1341 13.488 30.1341C13.792 30.1341 14.008 30.2141 14.136 30.3741C14.272 30.5261 14.34 30.7181 14.34 30.9501C14.34 31.1981 14.256 31.4061 14.088 31.5741C13.92 31.7341 13.68 31.8141 13.368 31.8141ZM5.088 32.0061C4.224 32.0061 3.492 31.9381 2.892 31.8021C2.3 31.6741 1.816 31.4901 1.44 31.2501C1.072 31.0021 0.804 30.7141 0.636 30.3861C0.468 30.0581 0.384 29.6981 0.384 29.3061C0.384 29.0501 0.404 28.7941 0.444 28.5381C0.492 28.2741 0.548 28.0181 0.612 27.7701C0.684 27.5221 0.748 27.2981 0.804 27.0981L2.304 27.4461C2.272 27.5901 2.236 27.7461 2.196 27.9141C2.156 28.0821 2.124 28.2461 2.1 28.4061C2.076 28.5581 2.064 28.6981 2.064 28.8261C2.064 29.1221 2.168 29.3861 2.376 29.6181C2.592 29.8421 2.944 30.0181 3.432 30.1461C3.92 30.2661 4.576 30.3261 5.4 30.3261L5.64 31.6221L5.088 32.0061ZM10.308 24.9141C10.06 24.9141 9.848 24.8301 9.672 24.6621C9.504 24.4941 9.42 24.2861 9.42 24.0381C9.42 23.7901 9.504 23.5781 9.672 23.4021C9.848 23.2261 10.06 23.1381 10.308 23.1381C10.548 23.1381 10.752 23.2261 10.92 23.4021C11.096 23.5781 11.184 23.7901 11.184 24.0381C11.184 24.2861 11.096 24.4941 10.92 24.6621C10.752 24.8301 10.548 24.9141 10.308 24.9141ZM13.3828 31.8141L13.5028 30.1341C13.7908 30.1341 14.0388 30.1061 14.2468 30.0501C14.4548 29.9941 14.6308 29.8821 14.7748 29.7141C14.9188 29.5381 15.0388 29.2821 15.1348 28.9461C15.2388 28.6101 15.3308 28.1621 15.4108 27.6021L16.9828 27.8661C16.9668 27.9861 16.9428 28.1261 16.9108 28.2861C16.8868 28.4461 16.8628 28.6101 16.8388 28.7781C16.8228 28.9381 16.8148 29.0901 16.8148 29.2341C16.8148 29.3781 16.8428 29.5061 16.8988 29.6181C16.9548 29.7301 17.0428 29.8261 17.1628 29.9061C17.2908 29.9781 17.4548 30.0341 17.6548 30.0741C17.8628 30.1141 18.1148 30.1341 18.4108 30.1341C18.7148 30.1341 18.9308 30.2141 19.0588 30.3741C19.1868 30.5261 19.2508 30.7181 19.2508 30.9501C19.2508 31.1981 19.1668 31.4061 18.9988 31.5741C18.8388 31.7341 18.6028 31.8141 18.2908 31.8141C17.9308 31.8141 17.6028 31.7861 17.3068 31.7301C17.0188 31.6741 16.7668 31.5821 16.5508 31.4541C16.3428 31.3181 16.1708 31.1421 16.0348 30.9261C15.9068 30.7021 15.8268 30.4301 15.7948 30.1101H16.3708C16.2268 30.4941 16.0428 30.8021 15.8188 31.0341C15.6028 31.2581 15.3588 31.4261 15.0868 31.5381C14.8148 31.6501 14.5308 31.7221 14.2348 31.7541C13.9468 31.7941 13.6628 31.8141 13.3828 31.8141ZM16.7308 34.5981C16.4988 34.5981 16.2988 34.5141 16.1308 34.3461C15.9708 34.1861 15.8908 33.9941 15.8908 33.7701C15.8908 33.5381 15.9708 33.3381 16.1308 33.1701C16.2988 33.0021 16.4988 32.9181 16.7308 32.9181C16.9548 32.9181 17.1468 33.0021 17.3068 33.1701C17.4668 33.3381 17.5468 33.5381 17.5468 33.7701C17.5468 33.9941 17.4668 34.1861 17.3068 34.3461C17.1468 34.5141 16.9548 34.5981 16.7308 34.5981ZM14.6548 34.5981C14.4228 34.5981 14.2228 34.5141 14.0548 34.3461C13.8948 34.1861 13.8148 33.9941 13.8148 33.7701C13.8148 33.5381 13.8948 33.3381 14.0548 33.1701C14.2228 33.0021 14.4228 32.9181 14.6548 32.9181C14.8788 32.9181 15.0708 33.0021 15.2308 33.1701C15.3908 33.3381 15.4708 33.5381 15.4708 33.7701C15.4708 33.9941 15.3908 34.1861 15.2308 34.3461C15.0708 34.5141 14.8788 34.5981 14.6548 34.5981ZM18.293 31.8141L18.413 30.1341C18.677 30.1341 18.893 30.1141 19.061 30.0741C19.229 30.0261 19.365 29.9261 19.469 29.7741C19.581 29.6141 19.677 29.3781 19.757 29.0661C19.845 28.7461 19.941 28.3141 20.045 27.7701L21.605 28.0581C21.573 28.2341 21.529 28.4541 21.473 28.7181C21.425 28.9821 21.401 29.2101 21.401 29.4021C21.401 29.5541 21.429 29.6861 21.485 29.7981C21.549 29.9021 21.653 29.9861 21.797 30.0501C21.949 30.1061 22.157 30.1341 22.421 30.1341C22.629 30.1341 22.805 30.1141 22.949 30.0741C23.101 30.0261 23.229 29.9261 23.333 29.7741C23.445 29.6141 23.541 29.3701 23.621 29.0421C23.709 28.7061 23.793 28.2541 23.873 27.6861L25.457 27.9381C25.425 28.1221 25.393 28.3181 25.361 28.5261C25.329 28.7341 25.301 28.9261 25.277 29.1021C25.253 29.2781 25.241 29.4221 25.241 29.5341C25.241 29.6381 25.269 29.7381 25.325 29.8341C25.389 29.9221 25.501 29.9941 25.661 30.0501C25.829 30.1061 26.061 30.1341 26.357 30.1341C26.717 30.1341 26.981 30.0581 27.149 29.9061C27.325 29.7461 27.413 29.5061 27.413 29.1861C27.413 29.0021 27.409 28.8061 27.401 28.5981C27.393 28.3821 27.377 28.1421 27.353 27.8781C27.337 27.6061 27.305 27.2981 27.257 26.9541L28.805 26.8341C28.861 27.5221 28.925 28.0821 28.997 28.5141C29.069 28.9461 29.165 29.2821 29.285 29.5221C29.413 29.7541 29.581 29.9141 29.789 30.0021C30.005 30.0901 30.285 30.1341 30.629 30.1341C30.933 30.1341 31.149 30.2141 31.277 30.3741C31.413 30.5261 31.481 30.7181 31.481 30.9501C31.481 31.1981 31.397 31.4061 31.229 31.5741C31.069 31.7341 30.829 31.8141 30.509 31.8141C30.293 31.8141 30.069 31.7941 29.837 31.7541C29.605 31.7221 29.381 31.6541 29.165 31.5501C28.949 31.4381 28.757 31.2781 28.589 31.0701C28.421 30.8621 28.289 30.5861 28.193 30.2421L28.409 30.3141C28.297 30.7141 28.145 31.0221 27.953 31.2381C27.761 31.4541 27.525 31.6061 27.245 31.6941C26.965 31.7741 26.629 31.8141 26.237 31.8141C25.877 31.8141 25.557 31.7661 25.277 31.6701C24.997 31.5741 24.773 31.4181 24.605 31.2021C24.445 30.9781 24.361 30.6781 24.353 30.3021H24.761C24.601 30.7501 24.417 31.0821 24.209 31.2981C24.001 31.5141 23.749 31.6541 23.453 31.7181C23.157 31.7821 22.785 31.8141 22.337 31.8141C22.065 31.8141 21.797 31.7861 21.533 31.7301C21.269 31.6661 21.033 31.5261 20.825 31.3101C20.617 31.0861 20.465 30.7341 20.369 30.2541L21.017 30.2301C20.849 30.7021 20.629 31.0501 20.357 31.2741C20.093 31.4981 19.789 31.6461 19.445 31.7181C19.101 31.7821 18.717 31.8141 18.293 31.8141ZM24.449 24.3861C24.249 24.3861 24.073 24.3101 23.921 24.1581C23.777 24.0061 23.705 23.8261 23.705 23.6181C23.705 23.4101 23.777 23.2341 23.921 23.0901C24.073 22.9461 24.249 22.8741 24.449 22.8741C24.657 22.8741 24.833 22.9461 24.977 23.0901C25.121 23.2341 25.193 23.4101 25.193 23.6181C25.193 23.8261 25.121 24.0061 24.977 24.1581C24.833 24.3101 24.657 24.3861 24.449 24.3861ZM23.489 25.9701C23.289 25.9701 23.113 25.8941 22.961 25.7421C22.817 25.5901 22.745 25.4101 22.745 25.2021C22.745 24.9941 22.817 24.8181 22.961 24.6741C23.113 24.5301 23.289 24.4581 23.489 24.4581C23.697 24.4581 23.873 24.5301 24.017 24.6741C24.161 24.8181 24.233 24.9941 24.233 25.2021C24.233 25.4101 24.161 25.5901 24.017 25.7421C23.873 25.8941 23.697 25.9701 23.489 25.9701ZM25.349 25.9701C25.149 25.9701 24.973 25.8941 24.821 25.7421C24.677 25.5901 24.605 25.4101 24.605 25.2021C24.605 24.9941 24.677 24.8181 24.821 24.6741C24.973 24.5301 25.149 24.4581 25.349 24.4581C25.557 24.4581 25.733 24.5301 25.877 24.6741C26.021 24.8181 26.093 24.9941 26.093 25.2021C26.093 25.4101 26.021 25.5901 25.877 25.7421C25.733 25.8941 25.557 25.9701 25.349 25.9701ZM30.5156 31.8141L30.6356 30.1341C31.0036 30.1341 31.2676 30.0981 31.4276 30.0261C31.5876 29.9461 31.6836 29.8021 31.7156 29.5941C31.7476 29.3781 31.7556 29.0661 31.7396 28.6581L31.5236 22.9701H33.2156L33.4556 28.7781C33.4716 29.2421 33.4516 29.6621 33.3956 30.0381C33.3476 30.4061 33.2236 30.7221 33.0236 30.9861C32.8316 31.2501 32.5316 31.4541 32.1236 31.5981C31.7236 31.7421 31.1876 31.8141 30.5156 31.8141ZM35.0381 31.7541L34.7861 22.9701H36.4661L36.7181 31.7541H35.0381ZM41.2028 36.4701C41.0188 35.8141 40.8668 35.1901 40.7468 34.5981C40.6268 34.0141 40.5388 33.4821 40.4828 33.0021C40.4268 32.5301 40.3988 32.1341 40.3988 31.8141C40.3988 31.1021 40.5108 30.4701 40.7348 29.9181C40.9668 29.3581 41.2628 28.8781 41.6228 28.4781C41.9908 28.0701 42.3828 27.7341 42.7988 27.4701C43.2228 27.2061 43.6308 27.0101 44.0228 26.8821C44.4228 26.7541 44.7628 26.6901 45.0428 26.6901C45.3308 26.6901 45.5668 26.7661 45.7508 26.9181C45.9428 27.0701 46.1108 27.2901 46.2548 27.5781C46.4068 27.8581 46.5668 28.1981 46.7348 28.5981C46.9268 29.0301 47.0948 29.3581 47.2388 29.5821C47.3908 29.7981 47.5468 29.9461 47.7068 30.0261C47.8668 30.0981 48.0468 30.1341 48.2468 30.1341C48.5508 30.1341 48.7708 30.2141 48.9068 30.3741C49.0428 30.5261 49.1108 30.7181 49.1108 30.9501C49.1108 31.1981 49.0268 31.4061 48.8588 31.5741C48.6908 31.7341 48.4468 31.8141 48.1268 31.8141C47.7348 31.8141 47.3948 31.7501 47.1068 31.6221C46.8188 31.4861 46.5588 31.2941 46.3268 31.0461L46.6628 30.6741C46.5907 30.9221 46.4908 31.1461 46.3628 31.3461C46.2428 31.5381 46.0788 31.6901 45.8708 31.8021C45.6708 31.9141 45.4188 31.9701 45.1148 31.9701C44.8428 31.9701 44.5708 31.9301 44.2988 31.8501C44.0348 31.7701 43.7748 31.6501 43.5188 31.4901C43.2708 31.3301 43.0308 31.1341 42.7988 30.9021C42.5668 30.6621 42.3468 30.3861 42.1388 30.0741L42.5828 29.9901C42.4068 30.2621 42.2788 30.5661 42.1988 30.9021C42.1188 31.2381 42.0788 31.5701 42.0788 31.8981C42.0788 32.1541 42.0988 32.4501 42.1388 32.7861C42.1868 33.1301 42.2468 33.4901 42.3188 33.8661C42.3908 34.2501 42.4708 34.6261 42.5588 34.9941C42.6548 35.3701 42.7468 35.7141 42.8348 36.0261L41.2028 36.4701ZM45.0908 30.2781C45.2428 30.2781 45.3628 30.2581 45.4508 30.2181C45.5468 30.1701 45.6068 30.1021 45.6308 30.0141C45.6628 29.9261 45.6548 29.8221 45.6068 29.7021C45.5268 29.4861 45.4468 29.2981 45.3668 29.1381C45.2948 28.9781 45.2228 28.8421 45.1508 28.7301C45.0868 28.6181 45.0188 28.5341 44.9468 28.4781C44.8828 28.4221 44.8148 28.3941 44.7428 28.3941C44.6388 28.3941 44.5108 28.4301 44.3588 28.5021C44.2068 28.5661 44.0548 28.6461 43.9028 28.7421C43.7508 28.8381 43.6228 28.9341 43.5188 29.0301C43.4148 29.1181 43.3548 29.1861 43.3388 29.2341L43.1948 28.8381C43.3388 29.1181 43.5108 29.3701 43.7108 29.5941C43.9188 29.8101 44.1428 29.9781 44.3828 30.0981C44.6228 30.2181 44.8588 30.2781 45.0908 30.2781ZM48.1043 31.8141L48.2243 30.1341C48.7843 30.1341 49.2883 30.0981 49.7363 30.0261C50.1843 29.9461 50.5763 29.8421 50.9123 29.7141C51.2563 29.5861 51.5403 29.4381 51.7643 29.2701C51.9963 29.1021 52.1683 28.9261 52.2803 28.7421C52.4003 28.5501 52.4603 28.3621 52.4603 28.1781C52.4603 28.0741 52.4323 27.9781 52.3763 27.8901C52.3283 27.7941 52.2443 27.7181 52.1243 27.6621C52.0043 27.5981 51.8403 27.5661 51.6323 27.5661C51.5283 27.5661 51.4043 27.5781 51.2603 27.6021C51.1163 27.6261 50.9723 27.6621 50.8283 27.7101C50.6843 27.7501 50.5483 27.8061 50.4203 27.8781C50.5883 28.0061 50.7723 28.1701 50.9723 28.3701C51.1723 28.5621 51.3723 28.7661 51.5723 28.9821C51.7723 29.1901 51.9443 29.3941 52.0883 29.5941C52.2563 29.6661 52.4403 29.7381 52.6403 29.8101C52.8483 29.8741 53.0723 29.9301 53.3123 29.9781C53.5523 30.0261 53.8043 30.0661 54.0683 30.0981C54.3323 30.1221 54.6043 30.1341 54.8843 30.1341C55.1883 30.1341 55.4043 30.2141 55.5323 30.3741C55.6683 30.5261 55.7363 30.7181 55.7363 30.9501C55.7363 31.1981 55.6523 31.4061 55.4843 31.5741C55.3163 31.7341 55.0763 31.8141 54.7643 31.8141C54.1243 31.8141 53.5563 31.7661 53.0603 31.6701C52.5643 31.5661 52.1203 31.4181 51.7283 31.2261C51.3443 31.0261 50.9843 30.7861 50.6483 30.5061C50.5523 30.3381 50.4163 30.1581 50.2403 29.9661C50.0723 29.7661 49.8923 29.5741 49.7003 29.3901C49.5163 29.2061 49.3483 29.0541 49.1963 28.9341C49.1563 28.9021 49.1083 28.8181 49.0523 28.6821C49.0043 28.5381 48.9603 28.3901 48.9203 28.2381C48.8803 28.0781 48.8603 27.9661 48.8603 27.9021C48.8603 27.7181 48.9443 27.5221 49.1123 27.3141C49.2883 27.1061 49.5203 26.9141 49.8083 26.7381C50.1043 26.5541 50.4283 26.4061 50.7803 26.2941C51.1403 26.1741 51.5043 26.1141 51.8723 26.1141C52.3683 26.1141 52.7803 26.1901 53.1083 26.3421C53.4443 26.4861 53.6963 26.6901 53.8643 26.9541C54.0323 27.2101 54.1163 27.5101 54.1163 27.8541C54.1163 28.2381 54.0323 28.6221 53.8643 29.0061C53.6963 29.3821 53.4483 29.7381 53.1203 30.0741C52.8003 30.4101 52.3963 30.7101 51.9083 30.9741C51.4283 31.2301 50.8683 31.4341 50.2283 31.5861C49.5963 31.7381 48.8883 31.8141 48.1043 31.8141ZM63.9054 31.8141C63.4974 31.8141 63.1054 31.7781 62.7294 31.7061C62.3534 31.6261 62.0134 31.5221 61.7094 31.3941C61.4134 31.2661 61.1694 31.1221 60.9774 30.9621L62.0574 29.7981C62.3454 29.9181 62.6414 30.0061 62.9454 30.0621C63.2494 30.1101 63.6094 30.1341 64.0254 30.1341C64.3294 30.1341 64.5454 30.2141 64.6734 30.3741C64.8094 30.5261 64.8774 30.7181 64.8774 30.9501C64.8774 31.1981 64.7934 31.4061 64.6254 31.5741C64.4574 31.7341 64.2174 31.8141 63.9054 31.8141ZM54.7734 31.8141L54.8934 30.1341H57.5814C58.3334 30.1341 58.9574 30.1061 59.4534 30.0501C59.9574 29.9941 60.3574 29.9141 60.6534 29.8101C60.9494 29.6981 61.1574 29.5701 61.2774 29.4261C61.4054 29.2821 61.4694 29.1261 61.4694 28.9581C61.4694 28.8061 61.4334 28.6621 61.3614 28.5261C61.2894 28.3821 61.1814 28.2661 61.0374 28.1781C60.8934 28.0901 60.7054 28.0461 60.4734 28.0461C60.1774 28.0461 59.8814 28.1181 59.5854 28.2621C59.2894 28.3981 59.0014 28.5861 58.7214 28.8261C58.4414 29.0581 58.1734 29.3181 57.9174 29.6061C57.6694 29.8941 57.4414 30.1861 57.2334 30.4821L55.4214 30.2301C55.7574 29.7101 56.1214 29.2181 56.5134 28.7541C56.9134 28.2821 57.3334 27.8701 57.7734 27.5181C58.2214 27.1581 58.6814 26.8781 59.1534 26.6781C59.6334 26.4701 60.1214 26.3661 60.6174 26.3661C61.1454 26.3661 61.5974 26.4741 61.9734 26.6901C62.3494 26.9061 62.6374 27.2021 62.8374 27.5781C63.0454 27.9541 63.1494 28.3901 63.1494 28.8861C63.1494 29.4061 63.0014 29.8741 62.7054 30.2901C62.4174 30.7061 61.9254 31.0501 61.2294 31.3221C60.9334 31.4341 60.6134 31.5261 60.2694 31.5981C59.9254 31.6701 59.5214 31.7221 59.0574 31.7541C58.5934 31.7941 58.0374 31.8141 57.3894 31.8141H54.7734ZM56.0214 30.5901L55.7694 22.9701H57.4494L57.6654 28.7301L56.0214 30.5901ZM63.9141 31.8141L64.0341 30.1341C64.2341 30.1341 64.3861 30.0941 64.4901 30.0141C64.5941 29.9341 64.6981 29.7941 64.8021 29.5941C64.9061 29.3941 65.0501 29.1221 65.2341 28.7781C65.4341 28.3941 65.6421 28.0741 65.8581 27.8181C66.0741 27.5541 66.2901 27.3461 66.5061 27.1941C66.7301 27.0341 66.9501 26.9221 67.1661 26.8581C67.3901 26.7861 67.6101 26.7501 67.8261 26.7501C68.1221 26.7501 68.3981 26.8141 68.6541 26.9421C68.9181 27.0621 69.1701 27.2741 69.4101 27.5781C69.6501 27.8741 69.8781 28.2821 70.0941 28.8021C70.2461 29.1621 70.3981 29.4381 70.5501 29.6301C70.7021 29.8221 70.8581 29.9541 71.0181 30.0261C71.1861 30.0981 71.3541 30.1341 71.5221 30.1341C71.8261 30.1341 72.0421 30.2141 72.1701 30.3741C72.2981 30.5261 72.3621 30.7181 72.3621 30.9501C72.3621 31.1981 72.2781 31.4061 72.1101 31.5741C71.9421 31.7341 71.7061 31.8141 71.4021 31.8141C71.0101 31.8141 70.6541 31.7501 70.3341 31.6221C70.0141 31.4941 69.7621 31.3021 69.5781 31.0461L69.9261 30.7821C69.8541 30.9501 69.7461 31.1261 69.6021 31.3101C69.4661 31.4941 69.2861 31.6501 69.0621 31.7781C68.8461 31.9061 68.5861 31.9701 68.2821 31.9701C68.0821 31.9701 67.8461 31.9301 67.5741 31.8501C67.3101 31.7781 67.0341 31.6541 66.7461 31.4781C66.4661 31.2941 66.2061 31.0461 65.9661 30.7341C65.8141 31.0141 65.6461 31.2341 65.4621 31.3941C65.2781 31.5461 65.0621 31.6541 64.8141 31.7181C64.5661 31.7821 64.2661 31.8141 63.9141 31.8141ZM66.6621 29.3181C66.7421 29.4381 66.8381 29.5581 66.9501 29.6781C67.0621 29.7981 67.1861 29.9061 67.3221 30.0021C67.4581 30.0901 67.6021 30.1621 67.7541 30.2181C67.9141 30.2741 68.0701 30.3021 68.2221 30.3021C68.3821 30.3021 68.5141 30.2421 68.6181 30.1221C68.7221 29.9941 68.7261 29.8061 68.6301 29.5581C68.5901 29.4541 68.5341 29.3381 68.4621 29.2101C68.3981 29.0741 68.3221 28.9461 68.2341 28.8261C68.1541 28.7061 68.0621 28.6061 67.9581 28.5261C67.8621 28.4461 67.7621 28.4061 67.6581 28.4061C67.5541 28.4061 67.4461 28.4381 67.3341 28.5021C67.2221 28.5661 67.1101 28.6661 66.9981 28.8021C66.8861 28.9301 66.7741 29.1021 66.6621 29.3181ZM71.4023 31.8141L71.5223 30.1341C71.8743 30.1341 72.1503 30.1101 72.3503 30.0621C72.5583 30.0141 72.7063 29.9261 72.7943 29.7981C72.8823 29.6621 72.9263 29.4701 72.9263 29.2221C72.9263 28.9981 72.8943 28.7301 72.8303 28.4181C72.7743 28.1061 72.6983 27.7821 72.6023 27.4461C72.5063 27.1101 72.4103 26.8021 72.3143 26.5221L73.9703 26.0661C74.0663 26.3381 74.1623 26.6541 74.2583 27.0141C74.3543 27.3741 74.4343 27.7461 74.4983 28.1301C74.5703 28.5061 74.6063 28.8701 74.6063 29.2221C74.6063 29.6621 74.5503 30.0341 74.4383 30.3381C74.3263 30.6341 74.1703 30.8821 73.9703 31.0821C73.7783 31.2741 73.5463 31.4261 73.2743 31.5381C73.0103 31.6421 72.7183 31.7141 72.3983 31.7541C72.0783 31.7941 71.7463 31.8141 71.4023 31.8141ZM72.8783 34.5741C72.6463 34.5741 72.4463 34.4941 72.2783 34.3341C72.1183 34.1741 72.0383 33.9781 72.0383 33.7461C72.0383 33.5141 72.1183 33.3101 72.2783 33.1341C72.4463 32.9661 72.6463 32.8821 72.8783 32.8821C73.1103 32.8821 73.3063 32.9661 73.4663 33.1341C73.6343 33.3101 73.7183 33.5141 73.7183 33.7461C73.7183 33.9781 73.6343 34.1741 73.4663 34.3341C73.3063 34.4941 73.1103 34.5741 72.8783 34.5741Z" fill="white"/>
<defs>
<linearGradient id="paint0_linear_2090_222" x1="112.959" y1="4.16" x2="112.959" y2="23.3782" gradientUnits="userSpaceOnUse">
<stop stop-color="#AB4F4F"/>
<stop offset="0.796875" stop-color="#E36409"/>
</linearGradient>
<linearGradient id="paint1_linear_2090_222" x1="118.818" y1="28.3097" x2="118.26" y2="28.3097" gradientUnits="userSpaceOnUse">
<stop stop-color="white"/>
</linearGradient>
<linearGradient id="paint2_linear_2090_222" x1="105.984" y1="28.3097" x2="105.426" y2="28.3097" gradientUnits="userSpaceOnUse">
<stop stop-color="white"/>
</linearGradient>
<linearGradient id="paint3_linear_2090_222" x1="112.122" y1="28.3097" x2="111.564" y2="28.3097" gradientUnits="userSpaceOnUse">
<stop stop-color="white"/>
</linearGradient>
<linearGradient id="paint4_linear_2090_222" x1="112.959" y1="36.831" x2="112.959" y2="38.7528" gradientUnits="userSpaceOnUse">
<stop stop-color="white"/>
</linearGradient>
<linearGradient id="paint5_linear_2090_222" x1="112.959" y1="21.4564" x2="112.959" y2="36.8309" gradientUnits="userSpaceOnUse">
<stop stop-color="white"/>
</linearGradient>
</defs>
</svg>
