<svg width="117" height="27" viewBox="0 0 117 27" fill="none" xmlns="http://www.w3.org/2000/svg">
<path d="M13.04 26.756L13.976 23.804C15.44 23.804 16.928 23.804 18.44 23.804C19.976 23.804 21.416 23.78 22.76 23.732C24.104 23.684 25.256 23.6 26.216 23.48C27.2 23.36 27.884 23.18 28.268 22.94C28.964 22.484 29.42 21.776 29.636 20.816C29.852 19.832 29.96 18.428 29.96 16.604C29.96 15.86 29.888 15.152 29.744 14.48C29.6 13.784 29.384 13.172 29.096 12.644C28.808 12.116 28.46 11.696 28.052 11.384C27.668 11.072 27.224 10.916 26.72 10.916C26.168 10.916 25.664 11.132 25.208 11.564C24.776 11.972 24.428 12.5 24.164 13.148C23.924 13.796 23.804 14.444 23.804 15.092C23.804 15.596 23.9 16.028 24.092 16.388C24.308 16.748 24.656 17.036 25.136 17.252C25.616 17.444 26.24 17.54 27.008 17.54C27.704 17.54 28.4 17.468 29.096 17.324C29.816 17.18 30.428 16.988 30.932 16.748L31.076 19.268C30.692 19.532 30.26 19.748 29.78 19.916C29.3 20.084 28.796 20.204 28.268 20.276C27.74 20.348 27.212 20.384 26.684 20.384C25.46 20.384 24.416 20.216 23.552 19.88C22.712 19.544 22.064 19.04 21.608 18.368C21.176 17.696 20.96 16.844 20.96 15.812C20.96 14.9 21.104 13.988 21.392 13.076C21.68 12.14 22.088 11.288 22.616 10.52C23.144 9.752 23.78 9.14 24.524 8.684C25.268 8.204 26.096 7.964 27.008 7.964C28.304 7.964 29.372 8.384 30.212 9.224C31.076 10.064 31.712 11.168 32.12 12.536C32.552 13.88 32.768 15.308 32.768 16.82C32.768 18.02 32.696 19.136 32.552 20.168C32.408 21.176 32.168 22.076 31.832 22.868C31.496 23.66 31.04 24.344 30.464 24.92C30.008 25.376 29.204 25.736 28.052 26C26.924 26.24 25.556 26.408 23.948 26.504C22.34 26.624 20.6 26.696 18.728 26.72C16.856 26.744 14.96 26.756 13.04 26.756ZM13.04 26.756C10.904 26.756 9.02 26.612 7.388 26.324C5.78 26.06 4.436 25.64 3.356 25.064C2.276 24.488 1.46 23.744 0.908 22.832C0.356 21.896 0.08 20.768 0.08 19.448C0.08 18.848 0.128 18.236 0.224 17.612C0.32 16.964 0.44 16.316 0.584 15.668C0.752 15.02 0.92 14.396 1.088 13.796L3.788 14.48C3.692 14.84 3.584 15.272 3.464 15.776C3.344 16.256 3.236 16.748 3.14 17.252C3.068 17.756 3.032 18.212 3.032 18.62C3.032 19.868 3.344 20.876 3.968 21.644C4.616 22.388 5.732 22.94 7.316 23.3C8.9 23.636 11.12 23.804 13.976 23.804L14.696 25.604L13.04 26.756ZM26.324 4.256C25.82 4.256 25.388 4.088 25.028 3.752C24.692 3.392 24.524 2.972 24.524 2.492C24.524 2.012 24.692 1.592 25.028 1.232C25.388 0.872 25.82 0.692 26.324 0.692C26.804 0.692 27.212 0.872 27.548 1.232C27.908 1.592 28.088 2.012 28.088 2.492C28.088 2.972 27.908 3.392 27.548 3.752C27.212 4.088 26.804 4.256 26.324 4.256ZM44.8783 26.18C42.9583 26.18 41.4823 25.964 40.4503 25.532C39.4423 25.1 38.7463 24.428 38.3623 23.516C37.9783 22.604 37.7623 21.428 37.7143 19.988L36.9943 0.295998H39.9463L40.6663 18.836C40.7143 20.012 40.8223 20.924 40.9903 21.572C41.1823 22.196 41.5903 22.628 42.2143 22.868C42.8623 23.108 43.8703 23.228 45.2383 23.228C45.7423 23.228 46.1023 23.372 46.3183 23.66C46.5583 23.924 46.6783 24.248 46.6783 24.632C46.6783 25.016 46.5103 25.376 46.1743 25.712C45.8383 26.024 45.4063 26.18 44.8783 26.18ZM44.8789 26.18L45.2389 23.228C46.2469 23.228 47.0389 23.144 47.6149 22.976C48.1909 22.784 48.6229 22.436 48.9109 21.932C49.2229 21.404 49.4869 20.648 49.7029 19.664C49.9189 18.68 50.1829 17.396 50.4949 15.812L53.3029 16.352C53.2069 16.784 53.0989 17.264 52.9789 17.792C52.8589 18.32 52.7509 18.848 52.6549 19.376C52.5829 19.88 52.5469 20.324 52.5469 20.708C52.5469 21.188 52.6549 21.62 52.8709 22.004C53.0869 22.388 53.5549 22.688 54.2749 22.904C54.9949 23.12 56.0989 23.228 57.5869 23.228C58.0909 23.228 58.4509 23.372 58.6669 23.66C58.9069 23.924 59.0269 24.248 59.0269 24.632C59.0269 25.016 58.8589 25.376 58.5229 25.712C58.1869 26.024 57.7549 26.18 57.2269 26.18C55.6669 26.18 54.4429 26.048 53.5549 25.784C52.6669 25.496 52.0189 25.076 51.6109 24.524C51.2029 23.948 50.9269 23.252 50.7829 22.436L51.8629 22.508C51.4789 23.276 51.0589 23.9 50.6029 24.38C50.1709 24.86 49.6909 25.232 49.1629 25.496C48.6349 25.76 48.0229 25.94 47.3269 26.036C46.6309 26.132 45.8149 26.18 44.8789 26.18ZM50.4949 12.104C49.9909 12.104 49.5589 11.936 49.1989 11.6C48.8629 11.24 48.6949 10.82 48.6949 10.34C48.6949 9.86 48.8629 9.44 49.1989 9.08C49.5589 8.72 49.9909 8.54 50.4949 8.54C50.9749 8.54 51.3829 8.72 51.7189 9.08C52.0789 9.44 52.2589 9.86 52.2589 10.34C52.2589 10.82 52.0789 11.24 51.7189 11.6C51.3829 11.936 50.9749 12.104 50.4949 12.104ZM74.6428 26.648C72.5308 26.648 70.7548 26.564 69.3148 26.396C67.8988 26.252 66.7468 26.024 65.8588 25.712C64.9708 25.4 64.2988 25.004 63.8428 24.524C63.3868 24.044 63.0748 23.468 62.9068 22.796L63.7348 22.508C63.1348 23.66 62.4868 24.5 61.7908 25.028C61.0948 25.532 60.3628 25.856 59.5947 26C58.8507 26.12 58.0588 26.18 57.2188 26.18L57.5788 23.228C58.4188 23.228 59.1028 23.108 59.6308 22.868C60.1828 22.628 60.6268 22.232 60.9628 21.68C61.3228 21.128 61.6348 20.396 61.8988 19.484C62.1628 18.572 62.4508 17.444 62.7628 16.1L65.3908 16.784C65.2468 17.336 65.1148 17.864 64.9948 18.368C64.8748 18.872 64.7788 19.316 64.7068 19.7C64.6588 20.06 64.6348 20.348 64.6348 20.564C64.6348 21.14 64.7668 21.632 65.0308 22.04C65.2948 22.424 65.7988 22.748 66.5428 23.012C67.2868 23.252 68.3548 23.432 69.7468 23.552C71.1628 23.648 73.0108 23.696 75.2908 23.696C76.8748 23.696 78.2908 23.6 79.5388 23.408C80.7868 23.216 81.8308 22.928 82.6708 22.544C83.5348 22.136 84.1948 21.644 84.6508 21.068C85.1068 20.492 85.3348 19.832 85.3348 19.088C85.3348 18.56 85.2028 18.044 84.9388 17.54C84.6748 17.012 84.2668 16.568 83.7148 16.208C83.1628 15.848 82.4308 15.668 81.5188 15.668C80.3668 15.668 79.2148 15.968 78.0628 16.568C76.9348 17.168 75.8548 17.924 74.8228 18.836C73.8148 19.724 72.9148 20.636 72.1228 21.572C71.3308 22.508 70.6948 23.324 70.2148 24.02L67.0828 23.912C67.8508 22.664 68.7628 21.392 69.8188 20.096C70.8988 18.776 72.0748 17.564 73.3468 16.46C74.6428 15.332 75.9988 14.432 77.4148 13.76C78.8308 13.064 80.2708 12.716 81.7348 12.716C83.0548 12.716 84.1828 12.992 85.1188 13.544C86.0788 14.072 86.8108 14.792 87.3148 15.704C87.8428 16.616 88.1068 17.648 88.1068 18.8C88.1068 20.216 87.6868 21.524 86.8468 22.724C86.0308 23.9 84.6388 24.848 82.6708 25.568C80.7028 26.288 78.0268 26.648 74.6428 26.648ZM103.886 6.704C103.886 6.176 103.85 5.54 103.778 4.796C103.706 4.052 103.622 3.308 103.526 2.564C103.43 1.82 103.334 1.184 103.238 0.655998L106.334 0.295998C106.406 0.775999 106.478 1.412 106.55 2.204C106.646 2.972 106.718 3.74 106.766 4.508C106.814 5.276 106.838 5.912 106.838 6.416C106.838 7.568 106.754 8.696 106.586 9.8C106.442 10.88 106.202 11.948 105.866 13.004C105.53 14.036 105.086 15.044 104.534 16.028L104.102 16.82C103.43 17.948 102.602 19.04 101.618 20.096C100.634 21.128 99.4823 22.112 98.1623 23.048H102.698C103.514 23.048 104.138 22.952 104.57 22.76C105.002 22.544 105.29 22.268 105.434 21.932C105.602 21.596 105.686 21.236 105.686 20.852C105.686 20.204 105.29 19.4 104.498 18.44C103.73 17.456 102.662 16.376 101.294 15.2C99.9263 14 98.3783 12.74 96.6503 11.42C94.9223 10.1 93.0983 8.756 91.1783 7.388L92.8703 5.012C95.0783 6.644 97.0223 8.12 98.7023 9.44C100.406 10.76 101.858 11.972 103.058 13.076C104.282 14.156 105.278 15.164 106.046 16.1C106.838 17.012 107.414 17.888 107.774 18.728C108.158 19.544 108.35 20.348 108.35 21.14C108.35 21.668 108.254 22.22 108.062 22.796C107.894 23.348 107.582 23.876 107.126 24.38C106.694 24.86 106.07 25.256 105.254 25.568C104.462 25.856 103.43 26 102.158 26H93.8783V23.084C96.3503 21.308 98.3063 19.58 99.7463 17.9C101.21 16.22 102.266 14.468 102.914 12.644C103.562 10.82 103.886 8.84 103.886 6.704ZM114.003 26L113.283 0.295998H116.199L116.919 26H114.003Z" fill="white"/>
</svg>
